<svg xmlns="http://www.w3.org/2000/svg" width="1200" height="420" viewBox="0 0 1200 420" role="img"><title>Share deliberately across agents.</title><desc>Optional shared memory adds a separate data boundary. Review what leaves the local process Retain provenance and trust controls Evaluate replication for your topology Shared Brain is optional and hosted. Replication primitives are not a complete network plane.</desc><style>text{font-family:Arial,Helvetica,sans-serif}.flow{stroke-dasharray:7 7;animation:flow 3s linear infinite}.step{opacity:.6}.pulse{animation:pulse 3s ease-in-out infinite}@keyframes flow{to{stroke-dashoffset:-56}}@keyframes pulse{50%{opacity:.3}}.s0{animation:s0 9s linear infinite}@keyframes s0{0%,100%{opacity:.6}0.100%,33.233%{opacity:1}}.s1{animation:s1 9s linear infinite}@keyframes s1{0%,100%{opacity:.6}33.433%,66.566%{opacity:1}}.s2{animation:s2 9s linear infinite}@keyframes s2{0%,100%{opacity:.6}66.766%,99.899%{opacity:1}}@media(prefers-reduced-motion:reduce){*{animation:none!important}.packet{display:none}.step{opacity:1}}</style><rect width="1200" height="420" fill="#05070c"/><rect x="1" y="1" width="1198" height="418" rx="14" fill="none" stroke="#283140"/><text x="30" y="37" font-size="13" fill="#7ef0cf" letter-spacing="2">20 / 23  ·  SHARED MEMORY</text><text x="29" y="82" font-size="31" fill="#f1f4f9" font-weight="700">Share deliberately across agents.</text><text x="30" y="178" font-size="19" fill="#aab7ca" >Optional shared memory adds a separate data</text><text x="30" y="202" font-size="19" fill="#aab7ca" >boundary.</text><path d="M772 110C811 110 802 205 841 205" fill="none" stroke="#7ef0cf" stroke-width="2" class="flow"/><circle class="packet" r="4" fill="#ffad75"><animateMotion path="M772 110C811 110 802 205 841 205" dur="3s" begin="0.0s" repeatCount="indefinite"/></circle><path d="M963 205C1002 205 993 110 1032 110" fill="none" stroke="#7ef0cf" stroke-width="2" class="flow"/><circle class="packet" r="4" fill="#ffad75"><animateMotion path="M963 205C1002 205 993 110 1032 110" dur="3s" begin="1.5s" repeatCount="indefinite"/></circle><g class="step s0"><rect x="650" y="83" width="122" height="54" rx="8" fill="#0d1420" stroke="#7ef0cf"/><text x="711" y="107" font-size="16" fill="#eaf0f7" text-anchor="middle">Local agent</text></g><g class="step s1"><rect x="841" y="178" width="122" height="54" rx="8" fill="#0d1420" stroke="#7ef0cf"/><text x="902" y="202" font-size="16" fill="#eaf0f7" text-anchor="middle">Trust policy</text></g><g class="step s2"><rect x="1032" y="83" width="122" height="54" rx="8" fill="#0d1420" stroke="#7ef0cf"/><text x="1093" y="107" font-size="16" fill="#eaf0f7" text-anchor="middle">Shared store</text></g><circle class="pulse" cx="1007" cy="230" r="1.5" fill="#788eac"/><circle class="pulse" cx="1062" cy="257" r="1.5" fill="#788eac"/><circle class="pulse" cx="927" cy="232" r="1.5" fill="#788eac"/><circle class="pulse" cx="922" cy="235" r="1.5" fill="#788eac"/><circle class="pulse" cx="862" cy="240" r="1.5" fill="#788eac"/><circle class="pulse" cx="931" cy="238" r="1.5" fill="#788eac"/><circle class="pulse" cx="960" cy="233" r="1.5" fill="#788eac"/><circle class="pulse" cx="965" cy="237" r="1.5" fill="#788eac"/><circle class="pulse" cx="716" cy="237" r="1.5" fill="#788eac"/><circle class="pulse" cx="871" cy="239" r="1.5" fill="#788eac"/><circle class="pulse" cx="798" cy="255" r="1.5" fill="#788eac"/><circle class="pulse" cx="716" cy="253" r="1.5" fill="#788eac"/><circle class="pulse" cx="827" cy="257" r="1.5" fill="#788eac"/><circle class="pulse" cx="820" cy="229" r="1.5" fill="#788eac"/><circle class="pulse" cx="952" cy="248" r="1.5" fill="#788eac"/><circle class="pulse" cx="764" cy="257" r="1.5" fill="#788eac"/><circle class="pulse" cx="697" cy="235" r="1.5" fill="#788eac"/><circle class="pulse" cx="719" cy="246" r="1.5" fill="#788eac"/><circle class="pulse" cx="894" cy="241" r="1.5" fill="#788eac"/><circle class="pulse" cx="1104" cy="252" r="1.5" fill="#788eac"/><circle class="pulse" cx="698" cy="254" r="1.5" fill="#788eac"/><circle class="pulse" cx="711" cy="242" r="1.5" fill="#788eac"/><circle class="pulse" cx="669" cy="232" r="1.5" fill="#788eac"/><circle class="pulse" cx="957" cy="252" r="1.5" fill="#788eac"/><circle class="pulse" cx="877" cy="253" r="1.5" fill="#788eac"/><circle class="pulse" cx="1097" cy="241" r="1.5" fill="#788eac"/><circle class="pulse" cx="886" cy="250" r="1.5" fill="#788eac"/><circle class="pulse" cx="814" cy="247" r="1.5" fill="#788eac"/><circle class="pulse" cx="1129" cy="245" r="1.5" fill="#788eac"/><circle class="pulse" cx="1087" cy="234" r="1.5" fill="#788eac"/><circle class="pulse" cx="1066" cy="249" r="1.5" fill="#788eac"/><circle class="pulse" cx="869" cy="236" r="1.5" fill="#788eac"/><circle class="pulse" cx="1057" cy="246" r="1.5" fill="#788eac"/><circle class="pulse" cx="956" cy="252" r="1.5" fill="#788eac"/><circle class="pulse" cx="716" cy="254" r="1.5" fill="#788eac"/><circle class="pulse" cx="767" cy="241" r="1.5" fill="#788eac"/><circle class="pulse" cx="759" cy="233" r="1.5" fill="#788eac"/><circle class="pulse" cx="729" cy="249" r="1.5" fill="#788eac"/><circle class="pulse" cx="913" cy="232" r="1.5" fill="#788eac"/><circle class="pulse" cx="941" cy="251" r="1.5" fill="#788eac"/><circle class="pulse" cx="895" cy="229" r="1.5" fill="#788eac"/><circle class="pulse" cx="893" cy="257" r="1.5" fill="#788eac"/><circle class="pulse" cx="906" cy="248" r="1.5" fill="#788eac"/><circle class="pulse" cx="722" cy="245" r="1.5" fill="#788eac"/><path d="M29 281H1171" fill="none" stroke="#253042" stroke-width="1" /><g class="step s0"><text x="30" y="308" font-size="12" fill="#ffad75" >01</text><text x="61" y="309" font-size="16" fill="#dce3ef" >Review what leaves the local</text><text x="61" y="330" font-size="16" fill="#dce3ef" >process</text></g><g class="step s1"><text x="420" y="308" font-size="12" fill="#ffad75" >02</text><text x="451" y="309" font-size="16" fill="#dce3ef" >Retain provenance and trust</text><text x="451" y="330" font-size="16" fill="#dce3ef" >controls</text></g><g class="step s2"><text x="810" y="308" font-size="12" fill="#ffad75" >03</text><text x="841" y="309" font-size="16" fill="#dce3ef" >Evaluate replication for your</text><text x="841" y="330" font-size="16" fill="#dce3ef" >topology</text></g><text x="30" y="383" font-size="13" fill="#93a0b4" >Shared Brain is optional and hosted. Replication primitives are not a complete network plane.</text></svg>